<?xml version="1.0" encoding="UTF-8" standalone="no"?>
<!-- Created with Inkscape (http://www.inkscape.org/) -->

<svg
   xmlns:dc="http://purl.org/dc/elements/1.1/"
   xmlns:cc="http://creativecommons.org/ns#"
   xmlns:rdf="http://www.w3.org/1999/02/22-rdf-syntax-ns#"
   xmlns:svg="http://www.w3.org/2000/svg"
   xmlns="http://www.w3.org/2000/svg"
   xmlns:sodipodi="http://sodipodi.sourceforge.net/DTD/sodipodi-0.dtd"
   xmlns:inkscape="http://www.inkscape.org/namespaces/inkscape"
   width="1878.6744"
   height="1207.8691"
   viewBox="0 0 1878.6746 1207.8693"
   id="svg5706"
   version="1.1"
   inkscape:version="0.91 r13725"
   sodipodi:docname="stack-logo.svg"
   inkscape:export-filename="C:\Users\binarycleric\Google Drive\Images\Twitch\square-logo.png"
   inkscape:export-xdpi="36"
   inkscape:export-ydpi="36">
  <defs
     id="defs5708" />
  <sodipodi:namedview
     id="base"
     pagecolor="#ffffff"
     bordercolor="#7aff1b"
     borderopacity="1"
     inkscape:pageopacity="0"
     inkscape:pageshadow="2"
     inkscape:zoom="0.125"
     inkscape:cx="-126.9954"
     inkscape:cy="544.38436"
     inkscape:document-units="px"
     inkscape:current-layer="layer1"
     showgrid="true"
     inkscape:window-width="2560"
     inkscape:window-height="1377"
     inkscape:window-x="2552"
     inkscape:window-y="-8"
     inkscape:window-maximized="1"
     borderlayer="false"
     fit-margin-top="0"
     fit-margin-left="0"
     fit-margin-right="0"
     fit-margin-bottom="0"
     showborder="true"
     units="px">
    <inkscape:grid
       type="xygrid"
       id="grid5741"
       spacingx="2.0000001"
       spacingy="2.0000001"
       originx="-35.921499"
       originy="-398.22242" />
  </sodipodi:namedview>
  <metadata
     id="metadata5711">
    <rdf:RDF>
      <cc:Work
         rdf:about="">
        <dc:format>image/svg+xml</dc:format>
        <dc:type
           rdf:resource="http://purl.org/dc/dcmitype/StillImage" />
        <dc:title />
      </cc:Work>
    </rdf:RDF>
  </metadata>
  <g
     inkscape:label="Layer 1"
     inkscape:groupmode="layer"
     id="layer1"
     transform="translate(2107.6627,605.06677)">
    <g
       id="g5759"
       transform="translate(-2884.5887,-83.857207)">
      <path
         inkscape:export-ydpi="90"
         inkscape:export-xdpi="90"
         sodipodi:nodetypes="ccsssccccccccsssccccc"
         id="path3936-8-6"
         d="M -36.939011,615.08499 -723.33204,-518.97961 c -32.98076,-55.20481 -44.92878,-71.18687 -67.26057,-71.18687 -22.33384,0 -44.6659,54.09606 -66.45335,54.09606 -26.96539,0 -48.2492,-54.09606 -70.59931,-54.09606 -14.81677,0 -29.60759,23.59941 -44.25482,39.63743 -97.44921,152.04121 -147.40621,285.96752 -3.50845,426.23668 211.44333,206.138281 120.64704,458.06333 -8.84611,739.40515 l 947.315639,0 z M -1167.6261,-97.590132 c -115.714,-157.913808 55.9137,-357.459478 140.3365,-460.639368 0,0 0.3438,-0.12224 0.4046,-0.14056 -13.0345,-14.93027 -25.2637,-31.82672 -37.7864,-31.82672 -22.3296,0 -44.6657,54.09698 -66.4573,54.09698 -26.9449,0 -48.2449,-54.09698 -70.5788,-54.09698 -22.3318,0 -44.6433,30.4417 -66.4714,71.18725 l -643.4536,1134.09266 458.0955,0 c 469.30642,-459.50496 415.8108,-535.345613 285.9211,-712.676608 z"
         inkscape:connector-curvature="0"
         style="display:inline;fill:#1a1a1a" />
      <g
         transform="matrix(0.97856344,0,0,0.97856344,-25.778181,20.898958)"
         id="g5753">
        <text
           xml:space="preserve"
           style="font-style:normal;font-weight:normal;font-size:431.24737549px;line-height:125%;font-family:sans-serif;letter-spacing:0px;word-spacing:0px;display:inline;fill:#000000;fill-opacity:1;stroke:none;stroke-width:1px;stroke-linecap:butt;stroke-linejoin:miter;stroke-opacity:1"
           x="-1195.5319"
           y="934.29108"
           id="text5480-5-4-7"
           sodipodi:linespacing="125%"
           transform="scale(1.0426488,0.95909572)"
           inkscape:export-xdpi="90"
           inkscape:export-ydpi="90"><tspan
             sodipodi:role="line"
             x="-1195.5319"
             y="934.29108"
             style="font-style:normal;font-variant:normal;font-weight:500;font-stretch:normal;font-size:357.49221802px;font-family:'Yu Gothic';-inkscape-font-specification:'Yu Gothic Medium';word-spacing:-92.37332153px;fill:#1a1a1a"
             id="tspan5498-9-3-2">volcano</tspan></text>
        <text
           xml:space="preserve"
           style="font-style:normal;font-weight:normal;font-size:334.24383545px;line-height:125%;font-family:sans-serif;letter-spacing:0px;word-spacing:0px;display:inline;fill:#d45500;fill-opacity:1;stroke:none;stroke-width:1px;stroke-linecap:butt;stroke-linejoin:miter;stroke-opacity:1"
           x="-2084.3313"
           y="870.00128"
           id="text5480-8-8"
           sodipodi:linespacing="125%"
           transform="scale(0.95917501,1.0425626)"
           inkscape:export-xdpi="90"
           inkscape:export-ydpi="90"><tspan
             sodipodi:role="line"
             x="-2084.3313"
             y="870.00128"
             style="font-style:normal;font-variant:normal;font-weight:bold;font-stretch:normal;font-family:'Yu Gothic';-inkscape-font-specification:'Yu Gothic Bold';word-spacing:0px;fill:#d45500"
             id="tspan5498-2-9">coop</tspan></text>
      </g>
    </g>
    <g
       id="g3344"
       transform="translate(-2703.0023,2013.3468)">
      <path
         inkscape:export-ydpi="90"
         inkscape:export-xdpi="90"
         sodipodi:nodetypes="ccsssccccccccsssccccc"
         id="path3936-8-6-4"
         d="m -143.24526,820.24372 -686.39303,-1134.0646 c -32.98076,-55.20481 -44.92878,-71.18687 -67.26057,-71.18687 -22.33384,0 -44.6659,54.09606 -66.45335,54.09606 -26.96539,0 -48.24919,-54.09606 -70.59929,-54.09606 -14.8168,0 -29.6076,23.59941 -44.2548,39.63743 -97.4492,152.04121 -147.4062,285.967511 -3.5085,426.236671 211.44334,206.138289 120.64705,458.063339 -8.8461,739.405159 l 947.31564,0 z M -1273.9323,107.56859 c -115.714,-157.913809 55.9137,-357.45947 140.3365,-460.63936 0,0 0.3438,-0.12224 0.4046,-0.14056 -13.0345,-14.93027 -25.2637,-31.82672 -37.7864,-31.82672 -22.3296,0 -44.6657,54.09698 -66.4573,54.09698 -26.9449,0 -48.2449,-54.09698 -70.5788,-54.09698 -22.3318,0 -44.6433,30.4417 -66.4714,71.18725 l -643.4536,1134.09266 458.0955,0 c 469.3064,-459.50496 415.8108,-535.34561 285.9211,-712.67662 z"
         inkscape:connector-curvature="0"
         style="display:inline;fill:#1a1a1a" />
      <text
         inkscape:export-ydpi="90"
         inkscape:export-xdpi="90"
         transform="scale(0.95917502,1.0425626)"
         sodipodi:linespacing="125%"
         id="text5480-8-8-1"
         y="-418.49991"
         x="-2151.7449"
         style="font-style:normal;font-weight:normal;font-size:871.35424805px;line-height:125%;font-family:sans-serif;letter-spacing:0px;word-spacing:0px;display:inline;fill:#d45500;fill-opacity:1;stroke:none;stroke-width:1px;stroke-linecap:butt;stroke-linejoin:miter;stroke-opacity:1"
         xml:space="preserve"><tspan
           id="tspan5498-2-9-8"
           style="font-style:normal;font-variant:normal;font-weight:bold;font-stretch:normal;font-family:'Yu Gothic';-inkscape-font-specification:'Yu Gothic Bold';word-spacing:0px;fill:#d45500"
           y="-418.49991"
           x="-2151.7449"
           sodipodi:role="line">coop</tspan></text>
    </g>
    <g
       id="g3396"
       transform="translate(-2871.7336,-1555.1653)">
      <path
         inkscape:export-ydpi="90"
         inkscape:export-xdpi="90"
         sodipodi:nodetypes="ccsssccccccccsssccccc"
         id="path3936-8-6-4-8"
         d="M -141.25463,541.93973 -829.10535,-594.53331 c -33.05079,-55.32204 -45.02423,-71.338 -67.40332,-71.338 -22.3814,0 -44.7608,54.21094 -66.5946,54.21094 -27.0227,0 -48.35163,-54.21094 -70.74913,-54.21094 -14.8483,0 -29.6704,23.64954 -44.3487,39.72154 -97.6563,152.36416 -147.7192,286.57487 -3.5161,427.14192 211.89244,206.5760577 120.90333,459.03612 -8.8648,740.97542 l 949.32737,0 z M -1274.3429,-172.24891 c -115.9596,-158.24917 56.0325,-358.2186 140.6345,-461.61757 0,0 0.3445,-0.12256 0.4057,-0.14093 -13.0623,-14.96194 -25.3174,-31.89426 -37.8667,-31.89426 -22.377,0 -44.7604,54.21181 -66.5984,54.21181 -27.0023,0 -48.3475,-54.21181 -70.7287,-54.21181 -22.3792,0 -44.7382,30.50635 -66.6125,71.33839 l -644.8203,1136.50113 459.0685,0 c 470.3029,-460.480793 416.6938,-536.4825023 286.5282,-714.19013 z"
         inkscape:connector-curvature="0"
         style="display:inline;fill:#808080" />
      <text
         inkscape:export-ydpi="90"
         inkscape:export-xdpi="90"
         transform="scale(0.95917502,1.0425626)"
         sodipodi:linespacing="125%"
         id="text5480-8-8-1-8"
         y="403.87625"
         x="-2031.9479"
         style="font-style:normal;font-weight:normal;font-size:1706.59362793px;line-height:125%;font-family:sans-serif;letter-spacing:0px;word-spacing:0px;display:inline;fill:#d45500;fill-opacity:1;stroke:none;stroke-width:1px;stroke-linecap:butt;stroke-linejoin:miter;stroke-opacity:1"
         xml:space="preserve"><tspan
           id="tspan5498-2-9-8-7"
           style="font-style:normal;font-variant:normal;font-weight:bold;font-stretch:normal;font-family:'Yu Gothic';-inkscape-font-specification:'Yu Gothic Bold';word-spacing:0px;fill:#d45500"
           y="403.87625"
           x="-2031.9479"
           sodipodi:role="line">c</tspan></text>
      <text
         inkscape:export-ydpi="90"
         inkscape:export-xdpi="90"
         transform="scale(0.92048958,1.0863784)"
         sodipodi:linespacing="125%"
         id="text5480-8-8-1-8-0"
         y="410.62457"
         x="-1194.79"
         style="font-style:normal;font-weight:normal;font-size:1716.44641113px;line-height:125%;font-family:sans-serif;letter-spacing:0px;word-spacing:0px;display:inline;fill:#000000;fill-opacity:1;stroke:none;stroke-width:1px;stroke-linecap:butt;stroke-linejoin:miter;stroke-opacity:1"
         xml:space="preserve"><tspan
           id="tspan5498-2-9-8-7-7"
           style="font-style:normal;font-variant:normal;font-weight:bold;font-stretch:normal;font-family:'Yu Gothic';-inkscape-font-specification:'Yu Gothic Bold';word-spacing:0px;fill:#000000"
           y="410.62457"
           x="-1194.79"
           sodipodi:role="line">v</tspan></text>
    </g>
  </g>
</svg>
